<?xml version="1.0" encoding="UTF-8"?>
<!-- Created with Inkscape (http://www.inkscape.org/) -->
<svg width="300" height="100" version="1.1" viewBox="0 0 79.375 26.458" xmlns="http://www.w3.org/2000/svg" xmlns:xlink="http://www.w3.org/1999/xlink">
 <defs>
  <radialGradient id="radialGradient3268" cx="70.577" cy="55.905" r="38.273" gradientTransform="matrix(-.7866 -1.3624 1.5631 -.90248 42.15 211.33)" gradientUnits="userSpaceOnUse">
   <stop stop-color="#c1b2c4" offset="0"/>
   <stop stop-color="#a791aa" offset="1"/>
  </radialGradient>
  <radialGradient id="radialGradient12896" cx="58.407" cy="19.2" r="26.921" gradientTransform="matrix(1.9668 1.5641 -1.2324 1.5498 -32.805 -106.77)" gradientUnits="userSpaceOnUse">
   <stop stop-color="#a18ba5" offset="0"/>
   <stop stop-color="#b4a0b6" offset="1"/>
  </radialGradient>
  <radialGradient cx="58.485" cy="62.274" r="35.459" gradientTransform="matrix(3.2281 -1.639 .85228 1.6786 -183.38 45.321)" gradientUnits="userSpaceOnUse">
   <stop stop-color="#f9e6fb" offset="0"/>
   <stop stop-color="#e4cee6" offset="1"/>
  </radialGradient>
  <radialGradient id="radialGradient27524" cx="33.256" cy="14.346" r="21.384" gradientTransform="matrix(1.5276 1.5264 -1.6392 1.6404 -4.1758 -69.069)" gradientUnits="userSpaceOnUse">
   <stop stop-color="#a995ad" offset="0"/>
   <stop stop-color="#907295" offset="1"/>
  </radialGradient>
  <radialGradient id="radialGradient27526" cx="33.256" cy="14.346" r="21.384" gradientTransform="matrix(1.5276 1.5264 -1.6392 1.6404 -4.1758 -69.069)" gradientUnits="userSpaceOnUse">
   <stop stop-color="#a995ad" offset="0"/>
   <stop stop-color="#907295" offset="1"/>
  </radialGradient>
  <radialGradient id="radialGradient27528" cx="33.256" cy="14.346" r="21.384" gradientTransform="matrix(1.5276 1.5264 -1.6392 1.6404 -4.1758 -69.069)" gradientUnits="userSpaceOnUse">
   <stop stop-color="#a995ad" offset="0"/>
   <stop stop-color="#907295" offset="1"/>
  </radialGradient>
  <radialGradient id="radialGradient27530" cx="34.378" cy="14.346" r="21.384" gradientTransform="matrix(2.447 2.4451 -1.6392 1.6404 -37.498 -102.37)" gradientUnits="userSpaceOnUse">
   <stop stop-color="#a995ad" offset="0"/>
   <stop stop-color="#907295" offset="1"/>
  </radialGradient>
 </defs>
 <g transform="matrix(.23587 0 0 .23587 1.8697 .63218)">
  <path d="m59.167 94.714 45.608-23.144-1.5956-1.5519-20.907-4.8643-59.307 33.536-0.59658 1.4164z" fill="#a691aa"/>
  <path d="m79.466 25.959-27.755-22.556-0.77905 2.4849 30.493 60.127 1.4997 0.49677 21.85 5.0595z" fill="url(#radialGradient12896)"/>
  <path d="m51.711 3.4021-45.332 38.613 15.99 58.09 60.557-33.595z" fill="url(#radialGradient3268)" style="mix-blend-mode:normal"/>
 </g>
 <g stroke-width=".23367">
  <path d="m40.495 10.4q0.24302 0 0.39257 0.16825 0.16825 0.16825 0.16825 0.39257v5.2717q0 1.8507-1.0469 2.8228-1.0469 0.97209-2.8228 0.97209-1.7572 0-2.8041-0.97209-1.0282-0.97208-1.0282-2.8228v-5.2717q0-0.22433 0.14955-0.39257 0.16825-0.16825 0.41127-0.16825 0.24302 0 0.39257 0.16825 0.16825 0.16825 0.16825 0.39257v5.2717q0 1.346 0.71037 2.0563 0.72906 0.69168 2.0003 0.69168 1.2899 0 2.0189-0.69168 0.72906-0.71037 0.72906-2.0563v-5.2717q0-0.22433 0.14955-0.39257 0.14955-0.16825 0.41127-0.16825z" fill="url(#radialGradient27524)"/>
  <path d="m47.449 6.1375q0.28041 0 0.59821 0.056082 0.33649 0.056082 0.57951 0.20563 0.24302 0.13086 0.24302 0.41127 0 0.20563-0.14955 0.37388-0.14955 0.14955-0.33649 0.14955-0.18694 0-0.46735-0.09347-0.28041-0.11216-0.59821-0.11216-0.39257 0-0.67298 0.18694-0.28041 0.16825-0.42996 0.50474-0.14955 0.3178-0.14955 0.78515v10.73q0 0.22433-0.16824 0.39257-0.14955 0.16825-0.39257 0.16825-0.24302 0-0.41127-0.16825-0.14955-0.16825-0.14955-0.39257v-10.73q0-1.1964 0.69168-1.832 0.71037-0.63559 1.8133-0.63559zm0.71037 4.3931q0.22433 0 0.37388 0.14955 0.14955 0.14955 0.14955 0.37388 0 0.22433-0.14955 0.37388-0.14955 0.14955-0.37388 0.14955h-4.58q-0.20563 0-0.37388-0.14955-0.14955-0.16825-0.14955-0.37388 0-0.24302 0.14955-0.37388 0.16824-0.14955 0.37388-0.14955z" fill="url(#radialGradient27526)"/>
  <path d="m55.263 10.119q1.2712 0 2.2433 0.63559 0.99078 0.6356 1.5703 1.7572 0.57951 1.1029 0.57951 2.5611 0 1.4207-0.57951 2.5611-0.57951 1.1403-1.5703 1.7946-0.99078 0.65429-2.2246 0.65429-0.65429 0-1.2525-0.20563-0.57951-0.20563-1.0656-0.54212-0.48604-0.35518-0.85992-0.82253-0.37388-0.46735-0.59821-1.0095l0.33649-0.24302v2.1124q0 0.24302-0.16825 0.41127-0.14955 0.14955-0.39257 0.14955t-0.41127-0.14955q-0.14955-0.16825-0.14955-0.41127v-12.731q0-0.24302 0.14955-0.39257 0.14955-0.16825 0.41127-0.16825 0.24302 0 0.39257 0.16825 0.16825 0.14955 0.16825 0.39257v6.2625l-0.26172-0.14955q0.18694-0.57951 0.54212-1.0469 0.37388-0.48604 0.85992-0.84123 0.48604-0.35519 1.0656-0.54213 0.57951-0.20563 1.2151-0.20563zm-0.09347 1.0469q-1.0095 0-1.7759 0.50474-0.76645 0.50474-1.2151 1.3834-0.42996 0.87862-0.42996 2.0189 0 1.1216 0.42996 2.0376 0.44866 0.89731 1.2151 1.4207 0.76645 0.50474 1.7759 0.50474 0.99078 0 1.7385-0.52343 0.76645-0.52343 1.2151-1.4207 0.44866-0.916 0.44866-2.0189 0-1.1403-0.44866-2.0189-0.44866-0.87862-1.2151-1.3834-0.74776-0.50474-1.7385-0.50474z" fill="url(#radialGradient27528)"/>
  <path d="m61.577 10.25q0.28041 0 0.44866 0.24302l6.6177 8.5618q0.13086 0.14955 0.13086 0.33649 0 0.22433-0.16824 0.39257-0.16825 0.16825-0.39257 0.16825-0.26172 0-0.46735-0.24302l-6.6364-8.5618q-0.11216-0.13086-0.11216-0.33649 0-0.24302 0.16824-0.39257 0.18694-0.16825 0.41127-0.16825zm0 9.7022q-0.18694 0-0.37388-0.13086-0.16824-0.13086-0.16824-0.37388 0-0.20563 0.13086-0.35518l3.1593-4.0566 0.6169 0.89731-2.9163 3.7949q-0.16824 0.22433-0.44866 0.22433zm6.6364-9.7022q0.24302 0 0.37388 0.14955 0.14955 0.13086 0.14955 0.33649 0 0.09347-0.03739 0.18694-0.0187 0.09347-0.09347 0.16825l-3.1593 4.1501-0.57951-0.89731 2.8789-3.851q0.20563-0.24302 0.46735-0.24302z" fill="url(#radialGradient27530)"/>
 </g>
</svg>
