<?xml version="1.0" encoding="UTF-8"?>
<!-- Created with Inkscape (http://www.inkscape.org/) -->
<svg width="128" height="128" version="1.1" viewBox="0 0 33.867 33.867" xmlns="http://www.w3.org/2000/svg">
 <g fill="none" stroke="#df91e8" stroke-linejoin="round" stroke-width="2.6458">
  <path d="m3.7538 5.911h8.4667v8.4667h-8.4667z" stop-color="#000000"/>
  <path d="m15.733 12.929h3.0905c1.6343 0 2.95 1.3157 2.95 2.95v3.0905c0 1.6343-1.3157 2.95-2.95 2.95h-3.0905c-1.6343 0-2.95-1.3157-2.95-2.95v-3.0905c0-1.6343 1.3157-2.95 2.95-2.95z" stop-color="#000000"/>
  <path d="m25.979 19.272c2.6562 0 4.7946 2.1384 4.7946 4.7946 0 2.6562-2.1384 4.7946-4.7946 4.7946-2.6562 0-4.7946-2.1384-4.7946-4.7946 0-2.6562 2.1384-4.7946 4.7946-4.7946z" stop-color="#000000"/>
 </g>
</svg>
