<?xml version="1.0" encoding="UTF-8"?>
<!-- Created with Inkscape (http://www.inkscape.org/) -->
<svg width="128" height="128" version="1.1" viewBox="0 0 33.867 33.867" xmlns="http://www.w3.org/2000/svg">
 <g fill="none" stroke="#df91e8" stroke-linecap="round" stroke-linejoin="round" stroke-width="2.6458">
  <path d="m25.4 8.4667a8.4667 2.1167 0 0 1-8.4667 2.1167 8.4667 2.1167 0 0 1-8.4667-2.1167 8.4667 2.1167 0 0 1 8.4667-2.1167 8.4667 2.1167 0 0 1 8.4667 2.1167z" stop-color="#000000"/>
  <path d="m25.4 8.4667a8.4667 2.1167 0 0 1-8.4667 2.1167 8.4667 2.1167 0 0 1-8.4667-2.1167 8.4667 2.1167 0 0 1 8.4667-2.1167 8.4667 2.1167 0 0 1 8.4667 2.1167z" stop-color="#000000"/>
  <path d="m25.4 16.933a8.4667 2.1167 0 0 1-8.4667 2.1167 8.4667 2.1167 0 0 1-8.4667-2.1167 8.4667 2.1167 0 0 1 8.4667-2.1167 8.4667 2.1167 0 0 1 8.4667 2.1167z" stop-color="#000000"/>
  <path d="m25.4 25.4a8.4667 2.1167 0 0 1-8.4667 2.1167 8.4667 2.1167 0 0 1-8.4667-2.1167 8.4667 2.1167 0 0 1 8.4667-2.1167 8.4667 2.1167 0 0 1 8.4667 2.1167z" stop-color="#000000"/>
  <path d="m8.4667 8.4667v16.933" stop-color="#000000" style="-inkscape-stroke:none;font-variation-settings:normal"/>
  <path d="m25.4 8.4667v16.933" stop-color="#000000" style="-inkscape-stroke:none;font-variation-settings:normal"/>
 </g>
</svg>
